<?xml version="1.0" encoding="UTF-8"?>
<svg version="1.1" xmlns="http://www.w3.org/2000/svg" width="1001" height="1160">
<path d="M0 0 C1.01126953 0.70382813 1.01126953 0.70382813 2.04296875 1.421875 C27.72233082 21.18461445 37.03037299 58.97790392 41.23728943 89.19670105 C43.08237934 103.38819287 43.51535408 117.38800919 43.4375 131.6875 C43.43293793 133.47841568 43.43293793 133.47841568 43.42828369 135.30551147 C43.35042517 156.10048447 42.16012279 176.4494429 39 197 C38.89109436 197.7165979 38.78218872 198.4331958 38.66998291 199.17150879 C35.48028891 220.01796078 31.0592662 240.5327634 26 261 C27.00401855 261.12133301 28.00803711 261.24266602 29.04248047 261.36767578 C32.9282521 261.9261268 36.56701621 262.95481685 40.3203125 264.1171875 C41.3528289 264.43632111 41.3528289 264.43632111 42.40620422 264.76190186 C44.64823043 265.45877221 46.8869057 266.16560922 49.125 266.875 C50.28166672 267.23981476 50.28166672 267.23981476 51.46170044 267.61199951 C73.0803282 274.45237408 94.26916708 282.30864556 114.80029297 291.97216797 C116.92138984 292.96326873 119.05339785 293.92493264 121.19140625 294.87890625 C163.66191683 314.02429492 215.41627833 346.37344779 232.80517578 392.11816406 C240.55064193 414.20690204 239.5332862 435.22608998 229.82421875 456.52734375 C218.13732306 478.77498886 199.82577611 498.01398023 179.65332031 512.78662109 C178.05441053 513.96006787 176.47597381 515.16125421 174.8984375 516.36328125 C132.27030993 548.367269 80.00144329 568.81660151 29 583 C30.15124574 589.7165685 31.50630836 596.35364392 33.05541992 602.98925781 C36.82071261 619.20636493 39.71077456 635.51674284 42 652 C42.24991699 653.78325684 42.24991699 653.78325684 42.50488281 655.60253906 C46.93606175 688.76757396 48.01063726 724.99381203 42 758 C41.82307617 758.98452148 41.64615234 759.96904297 41.46386719 760.98339844 C35.47223881 793.1974557 23.85406039 826.1357295 -3.84375 845.96484375 C-25.12150815 859.68478434 -48.73616632 860.30920432 -73 857 C-74.25554688 856.84273437 -75.51109375 856.68546875 -76.8046875 856.5234375 C-82.13827707 855.79668973 -86.8297953 854.78333054 -91.83325195 852.83178711 C-94.07068837 851.97286363 -96.3235642 851.18981908 -98.59375 850.421875 C-131.75163627 839.15949979 -162.69086655 821.999575 -190.2578125 800.36132812 C-191.96115217 799.03035531 -193.6798118 797.72269823 -195.40625 796.421875 C-202.08514878 791.37651493 -208.51709132 786.10143754 -214.87109375 780.65625 C-217.76015296 778.18626898 -220.71772089 775.80998176 -223.6875 773.4375 C-228.3131556 769.67915483 -232.48728956 765.61293302 -236.65234375 761.35546875 C-239.94734673 758.0495007 -243.43108015 755.00460346 -247 752 C-247.60328125 751.49210938 -248.2065625 750.98421875 -248.828125 750.4609375 C-250.21406619 749.30166893 -251.60623786 748.14985377 -253 747 C-253.61875 747.63615234 -253.61875 747.63615234 -254.25 748.28515625 C-257.89416336 751.98625966 -261.64231879 755.47275105 -265.578125 758.859375 C-268.09571452 761.08459928 -270.54657371 763.3696791 -272.99560547 765.66967773 C-279.45600137 771.7333522 -286.06351696 777.48084976 -293 783 C-294.14032315 783.93106797 -295.27958739 784.86343387 -296.41796875 785.796875 C-304.99918038 792.79972181 -313.84103818 799.33025072 -322.96826172 805.60351562 C-324.25644131 806.48892625 -325.54222976 807.37783417 -326.82470703 808.27148438 C-367.35407223 836.49546619 -420.63384655 864.3485687 -471.83984375 858.56640625 C-474.97715236 857.8799988 -477.95285569 857.01179309 -481 856 C-482.21816406 855.64679687 -483.43632812 855.29359375 -484.69140625 854.9296875 C-508.07168571 847.96799396 -523.4017569 832.09520688 -534.85742188 811.17382812 C-548.58706595 785.05230017 -553.13918145 753.29655781 -553.16796875 724.1328125 C-553.17129715 722.93623016 -553.17462555 721.73964783 -553.17805481 720.50680542 C-553.18308828 717.99070619 -553.18546425 715.47460036 -553.18530273 712.95849609 C-553.1874898 709.14279024 -553.20568593 705.32737365 -553.22460938 701.51171875 C-553.22754407 699.05208431 -553.22952836 696.59244851 -553.23046875 694.1328125 C-553.24124702 692.4478215 -553.24124702 692.4478215 -553.25224304 690.72879028 C-553.23318277 684.0090298 -552.64373873 677.60885962 -551.5098877 670.98400879 C-550.98999595 667.94145344 -550.56989336 664.89709878 -550.17578125 661.8359375 C-546.74906538 635.94430522 -541.7998907 610.22540099 -535 585 C-535.66902344 584.84724609 -536.33804688 584.69449219 -537.02734375 584.53710938 C-546.1929605 582.35335505 -555.07556648 579.49549875 -564 576.5 C-564.78823151 576.23578247 -565.57646301 575.97156494 -566.38858032 575.69934082 C-618.61724012 558.13533684 -668.82483774 534.46529888 -709 496 C-709.88558594 495.16726563 -710.77117188 494.33453125 -711.68359375 493.4765625 C-730.7904366 475.0553006 -746.29972453 449.91076265 -747.40234375 422.83081055 C-747.88983231 393.11093516 -731.44973988 369.03287067 -711.66748047 348.38476562 C-705.46557854 342.05804812 -698.72931673 336.57506878 -691.65673828 331.25537109 C-690.15008828 330.11372737 -688.66549008 328.94312737 -687.18359375 327.76953125 C-662.77113143 308.7048914 -633.62676463 294.52959254 -605 283 C-604.10200684 282.63777344 -603.20401367 282.27554687 -602.27880859 281.90234375 C-588.91493891 276.57873905 -575.29352291 272.02869901 -561.625 267.5625 C-560.82318298 267.29906799 -560.02136597 267.03563599 -559.19525146 266.76422119 C-550.85440786 264.03215255 -542.67786415 261.45210753 -534 260 C-534.41958984 258.64261719 -534.41958984 258.64261719 -534.84765625 257.2578125 C-547.16474513 215.93039359 -553.2450655 171.76335372 -553.1875 128.6875 C-553.18709213 127.52769119 -553.18709213 127.52769119 -553.18667603 126.3444519 C-553.16992228 115.89239028 -552.92399529 105.49183922 -552.1875 95.0625 C-552.08248169 93.50438599 -552.08248169 93.50438599 -551.9753418 91.91479492 C-549.49720885 61.50763426 -538.08507959 27.60004856 -516 6 C-515.29488281 5.26265625 -514.58976563 4.5253125 -513.86328125 3.765625 C-499.19548829 -10.65072008 -477.32066247 -15.28341321 -457.45507812 -15.31689453 C-414.20360777 -14.69084573 -372.18732332 6.45985513 -337 30 C-336.28489258 30.47711426 -335.56978516 30.95422852 -334.83300781 31.44580078 C-326.01533094 37.3571488 -317.40754605 43.5157488 -309 50 C-308.17701416 50.63373535 -308.17701416 50.63373535 -307.33740234 51.28027344 C-295.35217639 60.53190824 -283.82453244 70.20964464 -272.71875 80.5 C-270.40703518 82.62571478 -268.06644138 84.70045051 -265.6875 86.75 C-261.94368016 89.99150439 -258.45163039 93.4512925 -255 97 C-250.9009527 95.38965999 -248.23824319 92.42163832 -245.25 89.3125 C-241.3062701 85.28828582 -237.33107297 81.40978277 -233.03515625 77.7578125 C-230.59171962 75.6473586 -228.24081179 73.44707121 -225.875 71.25 C-220.6671532 66.50124713 -215.22300397 62.14766808 -209.6484375 57.83984375 C-207.22936232 55.96903201 -204.84147526 54.06771452 -202.4765625 52.12890625 C-152.55988207 11.26005093 -62.87391482 -45.34098137 0 0 Z M-191.29882812 75.60302734 C-193.58643396 77.48156933 -195.91814158 79.30184318 -198.25 81.125 C-203.11170879 84.9963607 -207.64712787 89.18884854 -212.19921875 93.4140625 C-214.41672005 95.46146259 -216.65328249 97.46585963 -218.9375 99.4375 C-224.75633477 104.4780193 -230.35872249 109.76289938 -236 115 C-234.37183375 119.00337349 -231.5638114 121.80182434 -228.625 124.875 C-223.26647663 130.5776933 -218.13453853 136.43443417 -213.0703125 142.3984375 C-210.98068125 144.85896149 -208.87069071 147.29958825 -206.7421875 149.7265625 C-200.5207656 156.82387817 -194.51257265 164.02564511 -188.734375 171.48828125 C-186.42055286 174.47544228 -184.05439528 177.41635055 -181.67431641 180.35083008 C-169.94820371 194.83614137 -159.18162058 210.06408961 -148.31176758 225.19506836 C-147.87888428 225.7906958 -147.44600098 226.38632324 -147 227 C-146.64945557 227.70543945 -146.29891113 228.41087891 -145.93774414 229.13769531 C-142.69694565 232.25232437 -138.69314918 232.04695407 -134.3515625 232.45703125 C-133.36895447 232.5652269 -132.38634644 232.67342255 -131.3739624 232.78489685 C-129.24396847 233.01860238 -127.1131343 233.24474514 -124.98162842 233.4642334 C-119.25877567 234.05800734 -113.54390104 234.72099924 -107.828125 235.37890625 C-106.6611911 235.51215302 -105.4942572 235.64539978 -104.29196167 235.78268433 C-93.28523463 237.05268026 -82.32369759 238.55289533 -71.375 240.25 C-70.47833618 240.38871521 -69.58167236 240.52743042 -68.65783691 240.67034912 C-50.9971559 243.43831591 -33.51177333 247.03130252 -16.04052734 250.79980469 C-14.56193237 251.11840202 -14.56193237 251.11840202 -13.0534668 251.44343567 C-11.20473167 251.84352455 -9.35670421 252.2469024 -7.50952148 252.65409851 C-6.2835022 252.92091179 -6.2835022 252.92091179 -5.03271484 253.19311523 C-4.32239105 253.34965073 -3.61206726 253.50618622 -2.88021851 253.66746521 C-0.82587405 254.08707843 -0.82587405 254.08707843 2 254 C17.29581377 187.94808112 36.87627827 98.19149676 -1.5 36.0625 C-4.38522533 31.73786071 -7.40690598 27.76021468 -11 24 C-11.66 24 -12.32 24 -13 24 C-13.23332031 23.40316406 -13.46664062 22.80632812 -13.70703125 22.19140625 C-17.36674721 15.98868524 -27.69753761 12.13825544 -34.34765625 10.37890625 C-89.73115143 -1.44820244 -151.40704203 42.56038654 -191.29882812 75.60302734 Z M-503 28 C-533.55380905 66.86444512 -531.2463865 127.18387497 -525.795578 173.7457428 C-523.24857288 194.56064623 -519.39099458 215.11935901 -514.75 235.5625 C-514.57755768 236.32600769 -514.40511536 237.08951538 -514.22744751 237.87615967 C-513.73827369 240.02499805 -513.23885263 242.1711147 -512.734375 244.31640625 C-512.44788086 245.53787354 -512.16138672 246.75934082 -511.86621094 248.01782227 C-511.11947869 251.14642875 -511.11947869 251.14642875 -509 254 C-507.92258545 253.764021 -506.8451709 253.52804199 -505.73510742 253.28491211 C-468.57314697 245.18046264 -431.35710271 238.70937672 -393.57098389 234.31759644 C-392.01455985 234.1361823 -390.4585914 233.95081079 -388.90313721 233.76126099 C-384.95375734 233.29030587 -381.03057377 232.92743197 -377.05810547 232.71923828 C-368.92129816 232.43422043 -368.92129816 232.43422043 -361.59545898 229.35229492 C-359.79136409 227.16066711 -358.53134047 225.03082785 -357.25 222.5 C-356.22368237 220.76452711 -355.19093679 219.03284216 -354.15234375 217.3046875 C-353.64171387 216.42135742 -353.13108398 215.53802734 -352.60498047 214.62792969 C-350.00322055 210.3679139 -346.92802264 206.51698996 -343.8125 202.625 C-342.63761053 201.13704263 -341.46312156 199.64876893 -340.2890625 198.16015625 C-339.7312207 197.45648926 -339.17337891 196.75282227 -338.59863281 196.02783203 C-336.26224915 193.06417859 -333.97567059 190.06340908 -331.6875 187.0625 C-327.24298216 181.27445961 -322.64620955 175.62652681 -318 170 C-316.56240698 168.22924218 -315.12490833 166.45840774 -313.6875 164.6875 C-306.02915485 155.33175548 -298.13508266 146.18122218 -290.01171875 137.2265625 C-288.15265331 135.16895609 -286.32071642 133.09153237 -284.5 131 C-280.39083717 126.28171421 -276.19491508 121.6419922 -272 117 C-273.57393237 113.02374979 -276.15121424 110.81375368 -279.3125 108 C-280.40149057 107.0239381 -281.49001615 106.04735723 -282.578125 105.0703125 C-283.14208984 104.56661133 -283.70605469 104.06291016 -284.28710938 103.54394531 C-286.52797301 101.52410187 -288.72797499 99.46244122 -290.92993164 97.40039062 C-297.07770198 91.65621999 -303.42109438 86.24903314 -310 81 C-311.12969208 80.07908815 -312.25855532 79.15715889 -313.38671875 78.234375 C-333.00502354 62.25576111 -353.82928703 48.19884095 -376 36 C-376.63550781 35.64341309 -377.27101563 35.28682617 -377.92578125 34.91943359 C-413.2341291 15.14847279 -470.27656202 -7.60474698 -503 28 Z M-256.91796875 136.6875 C-261.1211597 140.97026943 -265.22272355 145.29194663 -269.12890625 149.84765625 C-271.33079829 152.38052162 -273.60195826 154.84332522 -275.875 157.3125 C-279.96880209 161.80148057 -283.85469667 166.41243476 -287.66796875 171.140625 C-289.70459542 173.63779539 -291.78287127 176.09176049 -293.88427734 178.53442383 C-299.71472261 185.32479761 -305.17146174 192.35884735 -310.57421875 199.4921875 C-314.80269874 205.07353489 -319.11186857 210.59149239 -323.41918945 216.11206055 C-323.97437256 216.82402588 -324.52955566 217.53599121 -325.1015625 218.26953125 C-325.83366943 219.20696167 -325.83366943 219.20696167 -326.58056641 220.16333008 C-327.04897949 220.76943115 -327.51739258 221.37553223 -328 222 C-328.83217041 223.04353638 -328.83217041 223.04353638 -329.68115234 224.1081543 C-331.19062562 225.88908413 -331.19062562 225.88908413 -331 228 C-322.82407198 228.05796718 -314.69673079 227.89762482 -306.53125 227.5078125 C-290.8303688 226.83907126 -275.13521774 226.84753258 -259.42333984 226.86962891 C-255.32284531 226.87532559 -251.22241576 226.87194283 -247.12192345 226.86617756 C-230.13112119 226.84605992 -213.18728871 226.98762891 -196.21142578 227.77954102 C-189.80583871 228.07473054 -183.4117608 228.10491972 -177 228 C-182.22645538 219.62335234 -188.34644164 211.90067528 -194.390625 204.10888672 C-195.5033282 202.65082691 -196.59593139 201.17728747 -197.671875 199.69189453 C-198.20296875 198.9595459 -198.7340625 198.22719727 -199.28125 197.47265625 C-199.75626953 196.8062915 -200.23128906 196.13992676 -200.72070312 195.45336914 C-201.14287109 194.97375732 -201.56503906 194.49414551 -202 194 C-202.66 194 -203.32 194 -204 194 C-204.22429687 193.30261719 -204.44859375 192.60523438 -204.6796875 191.88671875 C-206.29675043 188.35118768 -208.57568613 185.69577572 -211.125 182.8125 C-212.12351692 181.65982436 -213.1209039 180.50616899 -214.1171875 179.3515625 C-214.85340332 178.50126465 -214.85340332 178.50126465 -215.60449219 177.63378906 C-217.54390794 175.36322045 -219.39981878 173.03106288 -221.25 170.6875 C-223.74915772 167.5455548 -226.27274706 164.43237948 -228.875 161.375 C-229.42929687 160.72273438 -229.98359375 160.07046875 -230.5546875 159.3984375 C-231.90437024 157.76821443 -231.90437024 157.76821443 -234 158 C-234.185625 157.319375 -234.37125 156.63875 -234.5625 155.9375 C-236.24311355 152.50320274 -238.31737878 150.51765741 -241.05859375 147.90234375 C-243.67706666 145.33655641 -246.03928476 142.58027481 -248.421875 139.796875 C-249.89786478 138.11629258 -251.3286766 136.48766149 -253 135 C-255.17551771 134.77981368 -255.17551771 134.77981368 -256.91796875 136.6875 Z M-331.29345703 252.74951172 C-333.83839528 252.92149872 -336.38733299 253.04009036 -338.93701172 253.11376953 C-345.78263281 253.23303586 -345.78263281 253.23303586 -351.90234375 255.8671875 C-352.59457031 256.90101563 -353.28679687 257.93484375 -354 259 C-354.54930176 259.77633789 -355.09860352 260.55267578 -355.66455078 261.35253906 C-357.68674536 264.24227848 -359.6289948 267.17523321 -361.5625 270.125 C-362.62803101 271.73906738 -362.62803101 271.73906738 -363.71508789 273.38574219 C-369.9397081 282.84430462 -376.05139089 292.36559288 -382 302 C-382.64050293 303.03608398 -383.28100586 304.07216797 -383.94091797 305.13964844 C-393.46875379 320.59200093 -402.663173 336.18674237 -411.40625 352.10058594 C-412.90898335 354.83441885 -414.42204498 357.56226742 -415.9375 360.2890625 C-421.72471065 370.74882268 -427.30109034 381.31695444 -432.80014038 391.93041992 C-433.54678477 393.37109961 -434.29480787 394.81106578 -435.04434204 396.25024414 C-437.10558551 400.21283658 -439.12395743 404.19241063 -441.09448242 408.20089722 C-441.95165235 409.90394179 -442.86688725 411.5773981 -443.78515625 413.24829102 C-445.84381147 417.32040342 -447.31918252 420.28641709 -446.46557617 424.86914062 C-445.23578442 427.97521027 -443.77232351 430.7815658 -442.125 433.6875 C-441.56288818 434.75983887 -441.00077637 435.83217773 -440.42163086 436.93701172 C-439.2381468 439.1865336 -438.03621243 441.42643626 -436.81689453 443.65673828 C-435.0709377 446.86946777 -433.39678611 450.10856666 -431.74609375 453.37109375 C-425.5094917 465.66247272 -418.87882462 477.70963352 -412.03515625 489.671875 C-409.77858819 493.61648231 -407.57531769 497.585445 -405.40258789 501.57666016 C-381.31023306 548.08234148 -381.31023306 548.08234148 -350 589 C-348.08735025 589.21943756 -346.16708082 589.37275786 -344.24609375 589.5 C-343.01834229 589.5820166 -341.79059082 589.6640332 -340.52563477 589.74853516 C-339.1629763 589.83321605 -337.80026239 589.91700838 -336.4375 590 C-335.7363205 590.04324402 -335.03514099 590.08648804 -334.31271362 590.13104248 C-244.11090388 599.82323611 -244.11090388 599.82323611 -157 588 C-155.11308987 585.84097848 -155.11308987 585.84097848 -153.41796875 583.05859375 C-152.74088867 582.01219727 -152.06380859 580.96580078 -151.36621094 579.88769531 C-150.63956859 578.73788629 -149.91334227 577.58781426 -149.1875 576.4375 C-148.42955922 575.25433896 -147.67075846 574.07172844 -146.91113281 572.88964844 C-144.9653717 569.85392857 -143.0353451 566.80856148 -141.11102295 563.75921631 C-140.06002581 562.09504609 -139.00498754 560.43343001 -137.94970703 558.77197266 C-129.00649293 544.68500781 -120.39775142 530.4177235 -112 516 C-111.40719238 514.98711914 -110.81438477 513.97423828 -110.20361328 512.93066406 C-95.89550144 488.47022977 -82.51975964 463.52515362 -69.6796875 438.26660156 C-68.54579838 436.06145093 -67.38348286 433.87071941 -66.1953125 431.69433594 C-65.63585937 430.64793945 -65.07640625 429.60154297 -64.5 428.5234375 C-63.74203125 427.14164307 -63.74203125 427.14164307 -62.96875 425.73193359 C-61.41490282 421.34999056 -62.46374796 418.2881318 -64.20825195 414.09765625 C-64.71316162 413.09605469 -65.21807129 412.09445312 -65.73828125 411.0625 C-66.58797485 409.36661743 -66.58797485 409.36661743 -67.45483398 407.63647461 C-68.07354276 406.42405436 -68.69277779 405.21190255 -69.3125 404 C-69.95213071 402.7365241 -70.59153219 401.47293213 -71.23071289 400.20922852 C-76.41765023 389.99244491 -81.82346359 379.90266289 -87.39453125 369.89013672 C-89.14714459 366.73511289 -90.88644782 363.57294868 -92.625 360.41015625 C-100.49854905 346.11815176 -108.59350347 331.98468638 -117 318 C-117.54446777 317.08863281 -118.08893555 316.17726563 -118.64990234 315.23828125 C-128.02666335 299.55292076 -137.87496913 284.21018845 -148 269 C-148.52094238 268.21657227 -149.04188477 267.43314453 -149.57861328 266.62597656 C-153.98675309 259.55773884 -153.98675309 259.55773884 -160 254 C-162.90033249 253.55346092 -162.90033249 253.55346092 -166.23046875 253.40234375 C-168.15149414 253.28342773 -168.15149414 253.28342773 -170.11132812 253.16210938 C-171.47004955 253.08719363 -172.8287735 253.01232369 -174.1875 252.9375 C-175.45142578 252.85951172 -176.71535156 252.78152344 -178.01757812 252.70117188 C-181.54807868 252.49062946 -185.07849579 252.29909003 -188.61074829 252.12142944 C-190.23068007 252.03909931 -191.85045175 251.95356817 -193.47006226 251.86514282 C-212.58246509 250.83448686 -231.69212391 250.80175941 -250.82634354 250.81132126 C-253.46348445 250.81251173 -256.10062142 250.81196455 -258.73776245 250.81130981 C-282.95090346 250.81260139 -307.13309395 250.96405201 -331.29345703 252.74951172 Z M-125 258 C-123.39784773 262.65429709 -120.89186071 266.4344222 -118.1875 270.5 C-95.78722824 304.70511851 -75.56172695 340.3354789 -56.59570312 376.54223633 C-56.07021126 377.5409375 -56.07021126 377.5409375 -55.53410339 378.55981445 C-54.57986784 380.37359536 -53.6292873 382.18929784 -52.67895508 384.00512695 C-51.26631919 386.52494729 -49.80526833 388.75331377 -48 391 C-40.86812411 377.83158752 -35.485411 363.91230132 -30 350 C-29.5457666 348.85047852 -29.0915332 347.70095703 -28.62353516 346.51660156 C-21.62982732 328.71581184 -15.40499201 310.70372891 -9.43359375 292.5390625 C-9.1077681 291.55021812 -9.1077681 291.55021812 -8.77536011 290.54139709 C-7.41776181 286.38488175 -6.17849689 282.20974155 -5 278 C-64.35846268 263.19331024 -64.35846268 263.19331024 -125 258 Z M-399.15625 259.06640625 C-400.04034546 259.18066956 -400.92444092 259.29493286 -401.83532715 259.41265869 C-404.72444243 259.78949708 -407.61229168 260.17503526 -410.5 260.5625 C-411.98016602 260.75916763 -411.98016602 260.75916763 -413.49023438 260.95980835 C-439.42449646 264.42473836 -465.14854029 269.05019897 -490.75 274.4375 C-491.81605469 274.65470703 -492.88210938 274.87191406 -493.98046875 275.09570312 C-494.99238281 275.31033203 -496.00429688 275.52496094 -497.046875 275.74609375 C-498.43664551 276.03504517 -498.43664551 276.03504517 -499.85449219 276.32983398 C-500.56250977 276.55098877 -501.27052734 276.77214355 -502 277 C-504.05550253 281.11100507 -500.81016548 286.89664615 -499.5 291.0625 C-499.30459625 291.68769531 -499.1091925 292.31289063 -498.90786743 292.95703125 C-489.84033418 321.85009605 -478.93394827 350.1794851 -467 378 C-466.44279386 379.30156199 -465.88566825 380.60315846 -465.32861328 381.90478516 C-463.8875593 385.27063731 -462.44433176 388.63555291 -461 392 C-458.28722334 388.65645353 -456.36626408 385.02887325 -454.4453125 381.19921875 C-453.74780295 379.82706558 -453.05012349 378.45499877 -452.35229492 377.08300781 C-451.98913177 376.36584595 -451.62596863 375.64868408 -451.25180054 374.90979004 C-444.33643685 361.27122374 -437.15158826 347.83711271 -429.49560547 334.59716797 C-428.02483436 332.04312568 -426.57380066 329.47891238 -425.12890625 326.91015625 C-412.38843161 304.3045483 -398.8453397 282.2908128 -384.19897461 260.87231445 C-382.91012085 259.23019649 -382.91012085 259.23019649 -383 258 C-388.48406549 257.87515428 -393.72269184 258.34788741 -399.15625 259.06640625 Z M-542.5 287.9375 C-543.17138 288.13940948 -543.84276001 288.34131897 -544.53448486 288.54934692 C-599.06631075 305.00108849 -655.51801445 327.45269904 -696 369 C-696.58007812 369.53496094 -697.16015625 370.06992187 -697.7578125 370.62109375 C-711.51614788 383.59709241 -721.57970267 401.51939919 -722.4375 420.5625 C-722.09385965 439.34143424 -712.1130918 455.3200406 -700 469 C-698.75669922 470.42505859 -698.75669922 470.42505859 -697.48828125 471.87890625 C-692.62758148 477.34998485 -687.66913804 482.37862345 -682 487 C-681.4834082 487.42893555 -680.96681641 487.85787109 -680.43457031 488.29980469 C-665.60897591 500.59480914 -649.81952461 510.65033277 -633 520 C-632.19353027 520.44988281 -631.38706055 520.89976562 -630.55615234 521.36328125 C-602.349323 536.96442854 -572.12186791 548.0454304 -541.4375 557.6875 C-540.33067871 558.0390918 -539.22385742 558.39068359 -538.08349609 558.75292969 C-537.06465332 559.06520508 -536.04581055 559.37748047 -534.99609375 559.69921875 C-533.65309204 560.11433716 -533.65309204 560.11433716 -532.28295898 560.5378418 C-529.85172193 561.2273363 -529.85172193 561.2273363 -527 560 C-525.73113192 557.07353497 -525.73113192 557.07353497 -524.72265625 553.40625 C-524.51560059 552.72080612 -524.30854492 552.03536224 -524.09521484 551.32914734 C-523.64530674 549.83913906 -523.20037625 548.34762095 -522.75979614 546.85482788 C-521.57014519 542.83727627 -520.3330705 538.83449374 -519.09375 534.83203125 C-518.83924576 534.00915115 -518.58474152 533.18627106 -518.32252502 532.3384552 C-507.76403214 498.46582631 -493.82350979 465.64539478 -479.43530273 433.25610352 C-478.96165283 432.18158936 -478.48800293 431.1070752 -478 430 C-477.70819855 429.40863251 -477.41639709 428.81726501 -477.11575317 428.20797729 C-475.25142734 424.29198839 -474.55068708 422.10574892 -476 418 C-477.19005932 414.99204219 -478.48061284 412.03669191 -479.796875 409.08203125 C-480.59340457 407.26738672 -481.38961522 405.45260218 -482.18554688 403.63769531 C-482.60441162 402.68689087 -483.02327637 401.73608643 -483.45483398 400.75646973 C-492.26814774 380.72341716 -500.41760187 360.52700589 -508 340 C-508.50918955 338.62975171 -509.01938099 337.25987461 -509.53125 335.890625 C-509.75723877 335.28468506 -509.98322754 334.67874512 -510.21606445 334.05444336 C-510.82591594 332.45621841 -511.45290624 330.86452916 -512.08666992 329.27563477 C-515.79886075 319.88347706 -518.82964384 310.33104526 -521.8125 300.6875 C-522.31926752 299.06042413 -522.82642662 297.43347016 -523.33398438 295.80664062 C-524.56049488 291.87248033 -525.78174164 287.93672309 -527 284 C-532.20213764 284 -537.5353927 286.44297594 -542.5 287.9375 Z M19 285 C16.89104082 289.76396073 15.07160351 294.54487362 13.46875 299.50390625 C12.98949604 300.96541017 12.50999327 302.42683252 12.03027344 303.88818359 C11.78144409 304.64927429 11.53261475 305.41036499 11.27624512 306.19451904 C3.38016923 330.28195859 -5.19269288 353.99778875 -15 377.375 C-15.33891266 378.18799561 -15.67782532 379.00099121 -16.02700806 379.83862305 C-19.33709891 387.76579256 -22.69113561 395.59306244 -26.71484375 403.1875 C-32.55531071 413.03659191 -32.55531071 413.03659191 -33.56640625 423.98828125 C-32.31187022 427.47371358 -30.38658276 430.50195986 -28.40966797 433.61865234 C-25.51018525 438.51673936 -23.35814813 443.79983485 -21.0625 449 C-20.51006161 450.22964545 -19.9569064 451.45896908 -19.40307617 452.68798828 C-7.63668781 478.91744284 2.63193375 505.83061891 12 533 C12.64853457 534.86610591 13.29708124 536.73220773 13.94636536 538.59805298 C16.31116904 545.39403725 18.66150297 552.19492233 21 559 C52.58476497 550.0249929 83.77239256 539.40463712 112.91552734 524.08935547 C115.31628885 522.83470592 117.73013804 521.60711104 120.14453125 520.37890625 C130.47930593 515.08930154 140.42918904 509.58279462 150 503 C150.58330078 502.5992627 151.16660156 502.19852539 151.76757812 501.78564453 C159.81868729 496.22499443 167.57669484 490.38425667 175 484 C175.96550781 483.16984375 176.93101562 482.3396875 177.92578125 481.484375 C189.9792994 470.89783238 199.72469468 459.33973222 207 445 C207.43054688 444.154375 207.86109375 443.30875 208.3046875 442.4375 C213.73252721 431.02715082 214.95178917 418.16648495 211.16796875 406.015625 C206.98898494 395.22574039 201.76029779 385.64382316 194 377 C193.28972656 376.17113281 192.57945312 375.34226562 191.84765625 374.48828125 C186.681256 368.55917868 181.20516345 362.85621487 175 358 C174.34 358 173.68 358 173 358 C173 357.34 173 356.68 173 356 C171.09250604 354.18177201 171.09250604 354.18177201 168.6875 352.375 C167.48673828 351.42753906 167.48673828 351.42753906 166.26171875 350.4609375 C164.02875574 348.72870529 164.02875574 348.72870529 161 349 C160.67 348.01 160.34 347.02 160 346 C158.36948062 344.6246032 158.36948062 344.6246032 156.30859375 343.3984375 C155.53684814 342.9127832 154.76510254 342.42712891 153.9699707 341.92675781 C153.13425537 341.41467773 152.29854004 340.90259766 151.4375 340.375 C150.57922607 339.84229492 149.72095215 339.30958984 148.83666992 338.76074219 C135.91734484 330.79826325 122.68907967 323.54890854 109 317 C108.2147998 316.62262695 107.42959961 316.24525391 106.62060547 315.85644531 C85.26171695 305.66726662 63.18546496 297.45355582 40.625 290.375 C39.93891663 290.1586792 39.25283325 289.9423584 38.54595947 289.71948242 C36.58750055 289.10515186 34.62652612 288.49983867 32.6640625 287.8984375 C31.54467285 287.55474121 30.4252832 287.21104492 29.27197266 286.85693359 C25.85804315 285.96282133 22.49989852 285.43284572 19 285 Z M-461 451 C-472.36612459 477.29275204 -482.80223363 503.81195949 -492.375 530.8125 C-492.62243958 531.50898651 -492.86987915 532.20547302 -493.12481689 532.92306519 C-494.78403597 537.60400177 -496.40591488 542.29650491 -498 547 C-498.36889343 548.07819 -498.36889343 548.07819 -498.74523926 549.17816162 C-499.48194163 551.3475402 -500.20049204 553.52213523 -500.9140625 555.69921875 C-501.13927582 556.35799515 -501.36448914 557.01677155 -501.5965271 557.69551086 C-502.81833075 561.50205558 -503.1861689 564.15436875 -502 568 C-443.03624635 581.37592768 -443.03624635 581.37592768 -383 586 C-384.29137687 582.50955325 -385.80619845 579.55179263 -387.87890625 576.46484375 C-388.46148193 575.58803955 -389.04405762 574.71123535 -389.64428711 573.80786133 C-390.27729736 572.86064209 -390.91030762 571.91342285 -391.5625 570.9375 C-416.93978611 532.4539075 -438.87872074 491.93641606 -460 451 C-460.33 451 -460.66 451 -461 451 Z M-49 451 C-49.24008789 451.49064941 -49.48017578 451.98129883 -49.72753906 452.48681641 C-55.95003719 465.16303438 -62.4926569 477.62631433 -69.33007812 489.98095703 C-71.10581406 493.19130069 -72.8732235 496.40615503 -74.640625 499.62109375 C-89.61983622 526.80242783 -105.63382894 553.34028739 -122.25854492 579.54638672 C-124.16763414 582.08895006 -124.16763414 582.08895006 -125 585 C-111.5344772 584.48600563 -98.3289432 582.87282682 -85 580.9375 C-83.9440564 580.78615601 -82.88811279 580.63481201 -81.8001709 580.47888184 C-56.00035579 576.76301858 -30.36102678 572.03941081 -5 566 C-3.31289059 560.97169126 -4.88929761 557.30522845 -6.578125 552.52734375 C-6.86029877 551.70034973 -7.14247253 550.87335571 -7.43319702 550.02130127 C-8.35905187 547.3219802 -9.30348987 544.6296416 -10.25 541.9375 C-10.89916978 540.06754888 -11.54809389 538.19751246 -12.19677734 536.32739258 C-22.32069077 507.29301343 -33.99946276 478.86399983 -47 451 C-47.66 451 -48.32 451 -49 451 Z M-510 591 C-513.02107133 599.33140167 -514.96039736 607.86419535 -516.875 616.5 C-517.04952698 617.28401184 -517.22405396 618.06802368 -517.40386963 618.87579346 C-519.93443665 630.32103536 -522.12286682 641.78498152 -523.875 653.375 C-524.06562012 654.62345703 -524.25624023 655.87191406 -524.45263672 657.15820312 C-527.15110717 675.86434216 -528.38624709 694.48119806 -528.3125 713.375 C-528.31067719 714.35380127 -528.30885437 715.33260254 -528.30697632 716.34106445 C-528.26092283 731.07218124 -527.87495298 745.50395231 -525 760 C-524.81775879 760.92087402 -524.63551758 761.84174805 -524.44775391 762.79052734 C-522.24003103 773.54141846 -519.5040065 783.95673775 -515 794 C-514.53722656 795.03511719 -514.07445312 796.07023438 -513.59765625 797.13671875 C-506.70800755 811.70183815 -496.00884425 824.58579013 -480.578125 830.2578125 C-442.64089806 841.32928893 -401.54993639 823.02893134 -368.71362305 805.07299805 C-350.18706034 794.63428851 -332.56779405 782.30393385 -316 769 C-314.52466797 767.824375 -314.52466797 767.824375 -313.01953125 766.625 C-310.32144042 764.44472459 -307.6551661 762.23232042 -305 760 C-304.47905762 759.56397461 -303.95811523 759.12794922 -303.42138672 758.67871094 C-292.19025604 749.25778581 -281.30937825 739.42630881 -271 729 C-272.31879167 726.13005812 -273.77095302 723.91254253 -275.875 721.5625 C-276.49117187 720.87285156 -277.10734375 720.18320312 -277.7421875 719.47265625 C-281.00417753 715.90026925 -284.28791002 712.34819756 -287.57543945 708.79931641 C-297.67004692 697.88993333 -297.67004692 697.88993333 -300.55859375 693.78515625 C-301.03425781 693.19605469 -301.50992188 692.60695313 -302 692 C-302.66 692 -303.32 692 -304 692 C-304.4021875 690.8553125 -304.4021875 690.8553125 -304.8125 689.6875 C-305.95134505 687.11011382 -306.81416671 685.73045136 -309 684 C-309.66 684 -310.32 684 -311 684 C-311.10014404 683.41645752 -311.20028809 682.83291504 -311.3034668 682.23168945 C-312.1292618 679.58584572 -313.25751584 678.31050426 -315.14453125 676.29296875 C-318.91278516 672.13990464 -322.31488811 667.78931222 -325.6875 663.3125 C-327.31321425 661.16565087 -328.9401258 659.01978201 -330.57177734 656.87744141 C-331.8101787 655.24952577 -333.0405871 653.61553558 -334.26953125 651.98046875 C-334.84058594 651.32691406 -335.41164063 650.67335938 -336 650 C-336.66 650 -337.32 650 -338 650 C-338.2165625 649.32839844 -338.433125 648.65679688 -338.65625 647.96484375 C-340.42774744 644.05622004 -342.88011084 640.94190766 -345.5 637.5625 C-348.68536356 633.4045137 -351.85856028 629.2531352 -354.83984375 624.9453125 C-355.27941406 624.31165771 -355.71898437 623.67800293 -356.171875 623.02514648 C-356.99353844 621.8321178 -357.80781258 620.63395343 -358.61328125 619.42993164 C-361.44144489 615.34311328 -364.03236251 612.59320087 -369.05183411 611.58985901 C-371.60884895 611.26937405 -374.1620488 611.0347617 -376.73046875 610.82421875 C-377.6967067 610.73397934 -378.66294464 610.64373993 -379.65846252 610.55076599 C-381.74391587 610.35601585 -383.82983409 610.16619385 -385.9161377 609.98077393 C-391.48782855 609.48127815 -397.05448456 608.93182206 -402.62109375 608.37890625 C-403.75153107 608.26673767 -404.88196838 608.15456909 -406.04666138 608.03900146 C-435.96418945 605.0174523 -465.53204309 599.90419614 -495 594 C-496.45912883 593.70872989 -497.91827612 593.41755225 -499.37744141 593.12646484 C-502.91867537 592.41954012 -506.45946545 591.71042036 -510 591 Z M-2 590 C-35.36881728 597.54190748 -69.0567515 603.68159092 -103.06640625 607.4921875 C-106.77835913 607.75208957 -106.77835913 607.75208957 -109 609 C-111.30947571 609.18773803 -113.62317735 609.32421148 -115.9375 609.4375 C-116.64116699 609.4893042 -117.34483398 609.5411084 -118.06982422 609.59448242 C-122.01303527 609.88316793 -125.84210418 609.98919488 -129.79296875 609.8046875 C-135.7178736 609.70461072 -141.35438533 609.66079467 -145.99414062 613.76318359 C-150.06392509 618.53292837 -153.20938595 623.87132874 -156.36035156 629.27392578 C-158.909047 633.51137863 -161.81643539 637.46127254 -164.75 641.4375 C-165.55872559 642.5527002 -165.55872559 642.5527002 -166.38378906 643.69042969 C-171.12645064 650.23012674 -176.02024661 656.63917396 -181 663 C-181.91540657 664.17444644 -182.83076982 665.34892665 -183.74609375 666.5234375 C-191.59878512 676.57864651 -199.65012583 686.45413474 -207.9206543 696.16870117 C-210.77508797 699.52758859 -213.55923494 702.93214165 -216.3125 706.375 C-222.16677763 713.58601715 -228.61103814 720.26568885 -235 727 C-231.11068584 731.64289587 -227.09817389 736.09522202 -222.8125 740.375 C-221.96776123 741.21961792 -221.96776123 741.21961792 -221.10595703 742.08129883 C-216.84370315 746.28657071 -212.36732673 750.10976149 -207.671875 753.828125 C-204.88125631 756.09652265 -202.25731429 758.48777399 -199.625 760.9375 C-194.29957274 765.82039175 -188.70268934 770.25479029 -182.91503906 774.56933594 C-180.80827294 776.14323312 -178.71323731 777.7321761 -176.6171875 779.3203125 C-139.58961525 807.18861581 -88.60853688 839.76227002 -40.0625 833.3125 C-24.26664181 830.29620547 -11.71465275 822.56197733 -2.61474609 809.22827148 C7.34820861 794.07309256 17.06210549 771.79173109 16.98925781 753.26855469 C17 751 17 751 18 750 C20.10859652 736.1139049 20.36441302 722.20529599 20.3125 708.1875 C20.31067719 707.16053009 20.30885437 706.13356018 20.30697632 705.07546997 C20.25579943 687.87186556 19.45769906 671.04803935 17 654 C16.74259033 652.18870605 16.74259033 652.18870605 16.47998047 650.34082031 C13.4600868 629.6738447 9.12089954 609.24527469 4 589 C1.7963848 589 0.14011417 589.44749495 -2 590 Z M-331 615 C-328.33265273 619.89529395 -325.43773025 624.23277174 -321.9375 628.5625 C-320.95425565 629.79543622 -319.97118759 631.02851305 -318.98828125 632.26171875 C-318.49021973 632.88353027 -317.9921582 633.5053418 -317.47900391 634.14599609 C-315.62314598 636.47240499 -313.79193494 638.81745065 -311.96142578 641.16381836 C-302.0977774 653.79339663 -291.95725816 666.17413978 -281.47070312 678.29101562 C-280.00635112 679.99261988 -278.55596205 681.70515396 -277.109375 683.421875 C-269.37813157 692.57351267 -261.25879042 701.32317204 -253 710 C-243.91984255 701.02225034 -235.16136524 691.69954579 -227.19140625 681.71875 C-225.21266218 679.26383757 -223.18154823 676.8637499 -221.12451172 674.47436523 C-215.27792804 667.67135108 -209.81124274 660.61959001 -204.3984375 653.46875 C-201.50567552 649.64983355 -198.56361036 645.87203614 -195.60717773 642.10229492 C-190.67529272 635.80979736 -185.80111287 629.48567247 -181.125 623 C-180.7019458 622.41839111 -180.2788916 621.83678223 -179.84301758 621.23754883 C-177.65812918 618.39991984 -177.65812918 618.39991984 -177 615 C-186.77852224 614.86123681 -196.51180931 615.06019316 -206.28125 615.5078125 C-240.35132094 617.02632497 -274.06029579 616.81808183 -308.12374878 615.35595703 C-315.75394398 615.03755142 -323.36340747 614.94252735 -331 615 Z " fill="#00D7FF" transform="translate(759,104)"/>
<path d="M0 0 C17.93706666 16.66375637 28.63326146 39.02368321 29.84887695 63.55810547 C30.54963467 89.87971706 20.42049251 113.1654511 2.625 132.3125 C-6.30385781 140.73832357 -16.71789604 147.17958449 -28.125 151.625 C-29.115 152.01429688 -30.105 152.40359375 -31.125 152.8046875 C-54.47286407 160.96452775 -78.98841512 158.07679157 -101.23828125 148.25 C-114.31973291 141.58622144 -127.27815817 131.12820951 -135.125 118.625 C-135.125 117.965 -135.125 117.305 -135.125 116.625 C-135.785 116.625 -136.445 116.625 -137.125 116.625 C-149.68428041 91.1711186 -155.47574355 65.82531553 -146.375 38.125 C-138.02542467 14.41291623 -121.70498194 -3.53387824 -99.21850586 -14.59228516 C-65.87005251 -30.41747887 -27.5607907 -24.1363212 0 0 Z " fill="#00D7FF" transform="translate(565.125,457.375)"/>
<path d="M0 0 C6.6 0 13.2 0 20 0 C25.62905122 9.60249914 30.82905472 19.37188751 35.93383789 29.26245117 C39.98985941 37.10347107 44.15125006 44.87806462 48.42675781 52.6015625 C53.78504958 62.3196089 58.84538592 72.15937312 64 82 C64.33 54.94 64.66 27.88 65 0 C69.95 0 74.9 0 80 0 C80 34.32 80 68.64 80 104 C73.07 104 66.14 104 59 104 C55 96 55 96 55 94 C54.01 93.505 54.01 93.505 53 93 C51.73872093 90.67795869 50.56660937 88.36101562 49.42578125 85.98046875 C48.70554503 84.50881568 47.98365001 83.03797349 47.26025391 81.56787109 C46.88725159 80.80907654 46.51424927 80.05028198 46.12994385 79.26849365 C44.36640639 75.72798715 42.5232073 72.23140322 40.66796875 68.73828125 C40.30124054 68.04701141 39.93451233 67.35574158 39.55667114 66.64352417 C38.43511102 64.5323827 37.31147088 62.4223588 36.1875 60.3125 C29.40879922 47.56710695 22.69858652 34.78821063 16 22 C15.67 49.06 15.34 76.12 15 104 C10.05 104 5.1 104 0 104 C0 69.68 0 35.36 0 0 Z " fill="#00D7FF" transform="translate(499,1036)"/>
<path d="M0 0 C50.55882353 0 50.55882353 0 59 7 C59.86625 7.70125 60.7325 8.4025 61.625 9.125 C67.80326685 16.6039546 68.80274267 24.77473069 68.375 34.21875 C67.64031425 41.62683131 65.44471688 45.96781994 59.9375 50.9375 C57.68280055 52.76809091 55.42079124 54.38613917 53 56 C53.4846875 56.34289063 53.969375 56.68578125 54.46875 57.0390625 C61.40948311 62.45817335 65.07154161 69.3150004 69 77 C69.53447754 78.04542969 70.06895508 79.09085938 70.61962891 80.16796875 C82 102.53423315 82 102.53423315 82 104 C76.72 104 71.44 104 66 104 C65.02160156 102.13408203 65.02160156 102.13408203 64.0234375 100.23046875 C63.14076529 98.5494055 62.25794294 96.86842107 61.375 95.1875 C60.9207666 94.3219751 60.4665332 93.4564502 59.99853516 92.56469727 C57.05990936 86.97733856 54.06543254 81.43077972 50.9609375 75.93359375 C50 74 50 74 50 72 C49.01 71.505 49.01 71.505 48 71 C47.62875 70.236875 47.2575 69.47375 46.875 68.6875 C44.2465639 64.92007492 41.30459178 63.49190789 37 62 C33.16227771 61.41581875 29.3773432 61.30691726 25.5 61.25 C22.035 61.1675 18.57 61.085 15 61 C15 75.19 15 89.38 15 104 C10.05 104 5.1 104 0 104 C0 69.68 0 35.36 0 0 Z M15 12 C15 23.88 15 35.76 15 48 C18.96 48.0825 22.92 48.165 27 48.25 C28.23234375 48.28641602 29.4646875 48.32283203 30.734375 48.36035156 C37.66129533 48.42988995 42.14634365 47.7884645 48 44 C52.69058325 38.60582926 52.60896743 33.25221885 52.37890625 26.25390625 C51.89392161 22.08903818 51.01525151 19.93793737 48 17 C40.81326053 11.53878956 32.73824622 11.85240675 24.0625 11.9375 C21.071875 11.958125 18.08125 11.97875 15 12 Z " fill="#00D7FF" transform="translate(53,1036)"/>
<path d="M0 0 C8.98763986 7.52416576 12.23083489 17.55682299 13.25 28.9375 C13.25 32.2375 13.25 35.5375 13.25 38.9375 C-6.22 38.9375 -25.69 38.9375 -45.75 38.9375 C-43.02965038 50.93452308 -43.02965038 50.93452308 -35.44921875 59.36328125 C-23.4128616 65.69351353 -12.58577211 64.35831802 0.25 60.9375 C2.66015259 60.04722733 4.91956837 59.02503476 7.25 57.9375 C8.24 57.9375 9.23 57.9375 10.25 57.9375 C10.25 61.8975 10.25 65.8575 10.25 69.9375 C0.57385308 74.54518901 -7.90175902 76.33107803 -18.625 76.3125 C-19.59373047 76.31088867 -20.56246094 76.30927734 -21.56054688 76.30761719 C-33.96076377 76.09468417 -43.36734451 71.98954953 -52.07421875 63.0703125 C-60.62639001 52.1857309 -60.70157499 39.10138618 -59.75 25.9375 C-57.87288937 15.15752184 -53.12418825 7.12877403 -44.67578125 0.25390625 C-31.67201808 -8.63507588 -12.9355688 -9.12592541 0 0 Z M-40.75 13.9375 C-43.79196793 18.62639324 -44.81382265 22.32043591 -45.75 27.9375 C-30.9 27.9375 -16.05 27.9375 -0.75 27.9375 C-1.38822165 21.17439439 -1.38822165 21.17439439 -3.6875 15.5625 C-4.02652344 14.91539063 -4.36554688 14.26828125 -4.71484375 13.6015625 C-5.76803901 11.76818251 -5.76803901 11.76818251 -7.75 9.9375 C-8.74 9.9375 -9.73 9.9375 -10.75 9.9375 C-10.75 9.2775 -10.75 8.6175 -10.75 7.9375 C-21.59511564 2.95192486 -32.52008375 5.70758375 -40.75 13.9375 Z " fill="#00D7FF" transform="translate(199.75,1066.0625)"/>
<path d="M0 0 C8.29048269 6.94052799 11.93531683 16.23789107 13.09375 26.80859375 C13.36522246 30.50740602 13.52540949 34.2356724 13.25 37.9375 C12.25 38.9375 12.25 38.9375 9.92784119 39.05775452 C8.89969803 39.05553391 7.87155487 39.05331329 6.81225586 39.05102539 C5.65112778 39.05094986 4.48999969 39.05087433 3.29368591 39.05079651 C1.39840904 39.04305458 1.39840904 39.04305458 -0.53515625 39.03515625 C-1.82111191 39.0337413 -3.10706757 39.03232635 -4.43199158 39.03086853 C-7.85643443 39.02704418 -11.28083509 39.01721462 -14.70526123 39.00616455 C-18.19738189 38.99594864 -21.68950934 38.99137053 -25.18164062 38.98632812 C-32.03777778 38.97559227 -38.89388687 38.95851684 -45.75 38.9375 C-45.1203141 41.03219243 -44.48676127 43.12572271 -43.8515625 45.21875 C-43.49916504 46.38470703 -43.14676758 47.55066406 -42.78369141 48.75195312 C-40.77679786 54.93663593 -38.49792628 57.75988692 -32.8125 60.75 C-21.87298553 65.97459037 -11.07218519 63.95493711 0.25 60.9375 C2.66015259 60.04722733 4.91956837 59.02503476 7.25 57.9375 C8.24 57.9375 9.23 57.9375 10.25 57.9375 C10.25 61.8975 10.25 65.8575 10.25 69.9375 C0.57385308 74.54518901 -7.90175902 76.33107803 -18.625 76.3125 C-19.59373047 76.31088867 -20.56246094 76.30927734 -21.56054688 76.30761719 C-33.96076377 76.09468417 -43.36734451 71.98954953 -52.07421875 63.0703125 C-60.62639001 52.1857309 -60.70157499 39.10138618 -59.75 25.9375 C-57.87288937 15.15752184 -53.12418825 7.12877403 -44.67578125 0.25390625 C-31.67201808 -8.63507588 -12.9355688 -9.12592541 0 0 Z M-40.75 13.9375 C-43.79196793 18.62639324 -44.81382265 22.32043591 -45.75 27.9375 C-30.9 27.9375 -16.05 27.9375 -0.75 27.9375 C-1.87178544 18.07704494 -1.87178544 18.07704494 -7.46484375 10.359375 C-18.29482811 2.39143724 -31.52444186 4.71194186 -40.75 13.9375 Z " fill="#00D7FF" transform="translate(925.75,1066.0625)"/>
<path d="M0 0 C7.19640441 5.94293233 10.33296053 13.81336196 11.42208862 22.92578125 C11.81511948 27.54875574 11.74587691 32.17616204 11.72265625 36.8125 C11.7212413 37.88878662 11.71982635 38.96507324 11.71836853 40.07397461 C11.7128038 43.48684555 11.70025787 46.89964913 11.6875 50.3125 C11.68248044 52.6367178 11.67791833 54.96093663 11.67382812 57.28515625 C11.66284593 62.96096317 11.64560577 68.63672019 11.625 74.3125 C7.005 74.3125 2.385 74.3125 -2.375 74.3125 C-2.87 70.3525 -2.87 70.3525 -3.375 66.3125 C-3.8596875 66.78300781 -4.344375 67.25351563 -4.84375 67.73828125 C-5.84921875 68.67220703 -5.84921875 68.67220703 -6.875 69.625 C-7.5246875 70.23988281 -8.174375 70.85476563 -8.84375 71.48828125 C-14.82565484 75.79931452 -20.9952544 76.87314411 -28.25 76.8125 C-29.03721436 76.80750488 -29.82442871 76.80250977 -30.63549805 76.79736328 C-38.54148275 76.56102316 -44.75972829 74.3750505 -50.3125 68.5625 C-55.09493452 61.02654257 -56.64281889 53.4586655 -54.8359375 44.69921875 C-53.06180699 38.11933912 -50.98660527 34.05357018 -45.1875 30.1875 C-35.8270666 25.33253892 -27.20314085 24.92978413 -16.8125 25.125 C-15.40821753 25.14007889 -14.00391934 25.15376161 -12.59960938 25.16601562 C-9.19099885 25.20115594 -5.7832073 25.25035877 -2.375 25.3125 C-2.65399359 23.88107589 -2.94389221 22.45177482 -3.23828125 21.0234375 C-3.47865112 19.82920166 -3.47865112 19.82920166 -3.72387695 18.61083984 C-4.80838793 14.78272349 -6.45327752 13.03944098 -9.375 10.3125 C-18.99478031 5.39102509 -29.64440701 6.1573093 -39.75 9.3125 C-41.30847656 9.869375 -41.30847656 9.869375 -42.8984375 10.4375 C-45.375 11.3125 -45.375 11.3125 -47.375 11.3125 C-47.705 11.9725 -48.035 12.6325 -48.375 13.3125 C-49.375 12.3125 -49.375 12.3125 -49.47265625 9.37109375 C-49.46105469 8.17613281 -49.44945312 6.98117187 -49.4375 5.75 C-49.42847656 4.55246094 -49.41945313 3.35492187 -49.41015625 2.12109375 C-49.39855469 1.19425781 -49.38695312 0.26742188 -49.375 -0.6875 C-47.33490245 -1.33827296 -45.29284331 -1.98289824 -43.25 -2.625 C-41.54457031 -3.16447266 -41.54457031 -3.16447266 -39.8046875 -3.71484375 C-26.99433431 -7.34784824 -11.36704452 -7.76853881 0 0 Z M-24.875 36.0625 C-26.1640625 36.20171875 -27.453125 36.3409375 -28.78125 36.484375 C-33.66769696 37.61038234 -36.99351531 39.70076787 -40.25 43.5 C-41.85409736 47.51024339 -42.0586309 51.05295364 -41.375 55.3125 C-39.04446745 59.80709848 -36.40601695 63.12174334 -31.625 65 C-23.52088152 66.12557201 -17.69466441 64.82393279 -10.6875 60.75 C-5.22798992 54.99538127 -2.19638298 47.45845765 -2.3125 39.5625 C-2.32152344 38.76328125 -2.33054687 37.9640625 -2.33984375 37.140625 C-2.35144531 36.53734375 -2.36304688 35.9340625 -2.375 35.3125 C-9.93356316 35.09991541 -17.36153115 35.23411895 -24.875 36.0625 Z " fill="#00D7FF" transform="translate(655.375,1065.6875)"/>
<path d="M0 0 C6.43537498 5.13592426 9.84914794 12.98513977 11.1875 20.9375 C11.44825862 25.1379499 11.42091136 29.32409515 11.3828125 33.53125 C11.3799826 34.71851685 11.37715271 35.90578369 11.37423706 37.12902832 C11.36309598 40.89862401 11.33800226 44.66797685 11.3125 48.4375 C11.30246237 51.00260072 11.29333789 53.56770519 11.28515625 56.1328125 C11.26317647 62.40113438 11.22868829 68.6692761 11.1875 74.9375 C6.8975 74.9375 2.6075 74.9375 -1.8125 74.9375 C-2.3075 70.4825 -2.3075 70.4825 -2.8125 65.9375 C-3.34875 66.68 -3.885 67.4225 -4.4375 68.1875 C-8.79265303 73.23030877 -14.14245159 76.46558049 -20.85400391 77.14379883 C-23.13532047 77.24174308 -25.40418635 77.25952969 -27.6875 77.25 C-28.83412109 77.27416992 -28.83412109 77.27416992 -30.00390625 77.29882812 C-36.71536966 77.30452546 -42.29490202 76.05457103 -47.5625 71.625 C-54.87053596 62.89595705 -55.67857138 56.18405553 -54.8125 44.9375 C-53.20754398 38.23729202 -49.62133637 33.58709215 -43.8125 29.9375 C-41.15881692 28.6726604 -38.63968125 27.81809744 -35.8125 26.9375 C-35.21727539 26.75002197 -34.62205078 26.56254395 -34.00878906 26.36938477 C-30.93835454 25.76560546 -27.98719086 25.82659029 -24.859375 25.83984375 C-24.19915344 25.8412587 -23.53893188 25.84267365 -22.85870361 25.84413147 C-20.75992206 25.84970755 -18.66124905 25.86225553 -16.5625 25.875 C-15.13541821 25.8800181 -13.70833475 25.88458046 -12.28125 25.88867188 C-8.79163168 25.89966912 -5.30207644 25.9169172 -1.8125 25.9375 C-2.25768842 24.32981239 -2.71271784 22.72484774 -3.171875 21.12109375 C-3.42420898 20.22704834 -3.67654297 19.33300293 -3.93652344 18.41186523 C-5.63460645 13.61530133 -8.58935225 11.55056916 -13.0078125 9.3359375 C-23.58791925 4.96487197 -35.5980661 8.21908766 -45.8125 11.9375 C-47.1325 12.2675 -48.4525 12.5975 -49.8125 12.9375 C-49.8125 8.6475 -49.8125 4.3575 -49.8125 -0.0625 C-47.60540017 -0.71253625 -45.39676108 -1.35734745 -43.1875 -2 C-41.95773438 -2.35964844 -40.72796875 -2.71929688 -39.4609375 -3.08984375 C-26.75185822 -6.47802441 -11.59161981 -7.12164877 0 0 Z M-37.8125 40.9375 C-40.54148015 44.41930226 -41.64275769 47.52420002 -41.8125 51.9375 C-40.91747797 56.9252927 -39.7858829 60.10908903 -35.875 63.4375 C-29.67815168 66.47269101 -23.40053983 66.95203245 -16.75 64.9375 C-10.67106865 62.40062314 -7.13648267 57.23240329 -3.9375 51.6875 C-2.37688261 46.48544202 -2.06995293 41.34401154 -1.8125 35.9375 C-20.48017059 35.20392819 -20.48017059 35.20392819 -37.8125 40.9375 Z " fill="#00D7FF" transform="translate(282.8125,1065.0625)"/>
<path d="M0 0 C4.95 0 9.9 0 15 0 C22.59 20.46 30.18 40.92 38 62 C41.26641696 54.16059929 44.43567789 46.35098316 47.390625 38.3984375 C47.7807074 37.35475006 48.17078979 36.31106262 48.57269287 35.23574829 C49.8005889 31.94962151 51.02550235 28.66239444 52.25 25.375 C53.4891938 22.05205713 54.72904034 18.72936138 55.97015381 15.40713501 C56.73817083 13.35092633 57.50501556 11.29427933 58.27056885 9.2371521 C58.61472839 8.31503937 58.95888794 7.39292664 59.31347656 6.44287109 C59.61594299 5.63079193 59.91840942 4.81871277 60.2300415 3.98202515 C61 2 61 2 62 0 C66.62 0 71.24 0 76 0 C74.42783364 8.70640235 71.25948635 16.74287892 68.1171875 24.97265625 C67.53658504 26.50658795 66.95652582 28.04072538 66.37698364 29.57505798 C64.8600762 33.58668943 63.33586829 37.59550732 61.81005859 41.60375977 C60.25041429 45.70485056 58.69777967 49.80859294 57.14453125 53.91210938 C54.10315933 61.94400228 51.05341501 69.97267767 48 78 C41.73 78 35.46 78 29 78 C22.91490883 62.97384326 17.10977303 47.85685829 11.42431641 32.67529297 C10.21990683 29.45959099 9.01039592 26.24583235 7.79968262 23.03249931 C6.63427487 19.9368574 5.47364292 16.83943163 4.3125 13.7421875 C3.66112061 12.01438553 3.66112061 12.01438553 2.99658203 10.25167847 C2.60196777 9.19522125 2.20735352 8.13876404 1.80078125 7.05029297 C1.27738159 5.65518997 1.27738159 5.65518997 0.7434082 4.23190308 C0 2 0 2 0 0 Z " fill="#00D7FF" transform="translate(778,1062)"/>
<path d="M0 0 C1.68359375 1.75 1.68359375 1.75 2.07421875 4.44921875 C2.0278125 5.43535156 1.98140625 6.42148438 1.93359375 7.4375 C1.8975 8.43136719 1.86140625 9.42523437 1.82421875 10.44921875 C1.7778125 11.20847656 1.73140625 11.96773437 1.68359375 12.75 C0.69359375 13.245 0.69359375 13.245 -0.31640625 13.75 C-2.33984375 13.0078125 -2.33984375 13.0078125 -4.69140625 11.875 C-12.97501164 7.91327568 -22.37896023 7.2327387 -31.3125 9.515625 C-38.06838539 12.43597728 -41.39362765 17.11712605 -44.31640625 23.75 C-47.00753871 32.96635399 -46.93721617 46.19588015 -42.6328125 54.8046875 C-38.7147427 60.5945948 -33.87007742 63.62060523 -27.12109375 65.34375 C-18.6597362 66.56935054 -10.990367 65.17765551 -3.33984375 61.4921875 C-1.31640625 60.75 -1.31640625 60.75 1.68359375 61.75 C1.68359375 65.38 1.68359375 69.01 1.68359375 72.75 C-10.7046045 78.39756097 -25.14667702 80.54678016 -38.50390625 76.3125 C-47.50123353 72.25011376 -54.69291564 64.91183397 -58.31640625 55.75 C-62.97474335 42.45669656 -63.00166838 27.92329502 -57.0625 15.02734375 C-51.76187964 5.45156365 -44.76012217 -0.08110741 -34.31640625 -3.25 C-23.48474521 -5.93998205 -9.94607024 -5.36718799 0 0 Z " fill="#00D7FF" transform="translate(375.31640625,1064.25)"/>
<path d="M0 0 C4.62 0 9.24 0 14 0 C14 7.26 14 14.52 14 22 C22.58 22 31.16 22 40 22 C40 25.63 40 29.26 40 33 C31.42 33 22.84 33 14 33 C14.11984057 40.04764572 14.24246756 47.09512612 14.37231445 54.14257812 C14.41564155 56.54033515 14.45731822 58.9381226 14.49731445 61.3359375 C14.55507063 64.78134326 14.61875006 68.22659625 14.68359375 71.671875 C14.70030624 72.74491882 14.71701874 73.81796265 14.73423767 74.92352295 C14.75418289 75.92425842 14.77412811 76.9249939 14.79467773 77.95605469 C14.81799416 79.27509796 14.81799416 79.27509796 14.84178162 80.62078857 C14.99132687 82.86957771 15.37538172 84.83990498 16 87 C21.12283766 87.98643638 26.17748929 88.30967053 31.375 88.5625 C32.20644531 88.60568359 33.03789063 88.64886719 33.89453125 88.69335938 C35.92953228 88.79861805 37.96474703 88.89973072 40 89 C40 92.63 40 96.26 40 100 C36.02008891 100.10862532 32.04318622 100.18762775 28.0625 100.25 C26.94552734 100.28351563 25.82855469 100.31703125 24.67773438 100.3515625 C17.65366742 100.43395625 11.99189865 99.89123724 6 96 C4.0625 94.03515625 4.0625 94.03515625 3 92.0625 C2.62875 91.41410156 2.2575 90.76570313 1.875 90.09765625 C0.20072253 86.083875 -0.12444749 82.15675846 -0.11352539 77.8425293 C-0.11344986 76.84186935 -0.11337433 75.84120941 -0.11329651 74.81022644 C-0.10813522 73.7423439 -0.10297394 72.67446136 -0.09765625 71.57421875 C-0.0962413 70.47149124 -0.09482635 69.36876373 -0.09336853 68.23262024 C-0.08778004 64.71755233 -0.07522959 61.20254859 -0.0625 57.6875 C-0.05748352 55.30143321 -0.05292087 52.91536543 -0.04882812 50.52929688 C-0.03781437 44.6861761 -0.02108764 38.84309263 0 33 C-2.97 33 -5.94 33 -9 33 C-9 29.37 -9 25.74 -9 22 C-6.03 22 -3.06 22 0 22 C0 14.74 0 7.48 0 0 Z " fill="#00D7FF" transform="translate(692,1040)"/>
<path d="M0 0 C4.29 0 8.58 0 13 0 C13 7.26 13 14.52 13 22 C21.91 22 30.82 22 40 22 C40 25.63 40 29.26 40 33 C31.09 33 22.18 33 13 33 C13.09739517 38.94110539 13.20041011 44.88158665 13.31738281 50.82226562 C13.35545525 52.83945965 13.39034432 54.85671655 13.421875 56.87402344 C13.46800145 59.78863872 13.52591296 62.70282913 13.5859375 65.6171875 C13.59748871 66.50614716 13.60903992 67.39510681 13.62094116 68.31100464 C13.76136656 74.38986572 14.62594285 80.07913134 16 86 C21.16815281 88.05722588 25.8922296 88.41513319 31.375 88.625 C32.20644531 88.66367188 33.03789062 88.70234375 33.89453125 88.7421875 C35.92935156 88.83574246 37.96464416 88.91892713 40 89 C40 92.63 40 96.26 40 100 C36.02008891 100.10862532 32.04318622 100.18762775 28.0625 100.25 C26.94552734 100.28351563 25.82855469 100.31703125 24.67773438 100.3515625 C16.4352751 100.44824824 9.6464606 99.55296161 3.5625 93.625 C-0.43467377 86.90974807 -0.26623419 80.64110689 -0.1953125 73.0390625 C-0.1924826 71.89335785 -0.18965271 70.7476532 -0.18673706 69.56723022 C-0.17557135 65.91971245 -0.15047299 62.27244315 -0.125 58.625 C-0.11496555 56.14713897 -0.10584051 53.66927408 -0.09765625 51.19140625 C-0.07564376 45.12750891 -0.04113838 39.06379654 0 33 C-3.3 33 -6.6 33 -10 33 C-10 29.37 -10 25.74 -10 22 C-6.7 22 -3.4 22 0 22 C0 14.74 0 7.48 0 0 Z " fill="#00D7FF" transform="translate(398,1040)"/>
<path d="M0 0 C4.62 0 9.24 0 14 0 C14 25.74 14 51.48 14 78 C9.38 78 4.76 78 0 78 C0 52.26 0 26.52 0 0 Z " fill="#00D7FF" transform="translate(748,1062)"/>
<path d="M0 0 C4.62 0 9.24 0 14 0 C14.02684679 2.64590014 14.04676357 5.29153096 14.0625 7.9375 C14.07087891 8.69224609 14.07925781 9.44699219 14.08789062 10.22460938 C14.09652441 12.14994313 14.05224333 14.07535581 14 16 C13 17 13 17 10.05859375 17.09765625 C6.70572917 17.06510417 3.35286458 17.03255208 0 17 C0 11.39 0 5.78 0 0 Z " fill="#00D8FF" transform="translate(748,1032)"/>
<path d="" fill="#00D6FF" transform="translate(0,0)"/>
</svg>
